<svg version="1.1" viewBox="0.0 0.0 562.7480314960629 239.92125984251967" fill="none" stroke="none" stroke-linecap="square" stroke-miterlimit="10" xmlns:xlink="http://www.w3.org/1999/xlink" xmlns="http://www.w3.org/2000/svg"><clipPath id="p.0"><path d="m0 0l562.74805 0l0 239.92126l-562.74805 0l0 -239.92126z" clip-rule="nonzero"/></clipPath><g clip-path="url(#p.0)"><path fill="#000000" fill-opacity="0.0" d="m0 0l562.74805 0l0 239.92126l-562.74805 0z" fill-rule="evenodd"/><path fill="#b6d7a8" d="m0.96981627 137.44357l560.7874 0l0 100.59842l-560.7874 0z" fill-rule="evenodd"/><path fill="#b6d7a8" d="m286.16547 111.94142c-10.8819275 36.043137 -44.087143 60.704926 -81.73717 60.70688l-0.0018005371 -34.782776l0 0c22.312912 -0.001159668 41.991653 -14.616722 48.44072 -35.977318z" fill-rule="evenodd"/><path fill="#b6d7a8" d="m252.53268 104.0192c10.8819275 -36.04313 44.08716 -60.704918 81.73718 -60.706867l0.0018005371 34.782772l0 0c-22.312927 0.0011520386 -41.99167 14.6167145 -48.440735 35.977318z" fill-rule="evenodd"/><path fill="#b6d7a8" d="m331.98032 43.312336l229.79526 0l0 143.90552l-229.79526 0z" fill-rule="evenodd"/><path fill="#b6d7a8" d="m273.13516 77.7769l229.79529 0l0 160.25197l-229.79529 0z" fill-rule="evenodd"/><path fill="#ea9999" d="m68.29483 125.40638l0 0c0 -10.419479 8.446663 -18.866142 18.866142 -18.866142l0 0c5.0036163 0 9.802292 1.9876785 13.340378 5.5257645c3.538086 3.5380936 5.5257645 8.336769 5.5257645 13.340378l0 0c0 10.419487 -8.446655 18.866142 -18.866142 18.866142l0 0c-10.419479 0 -18.866142 -8.446655 -18.866142 -18.866142z" fill-rule="evenodd"/><path fill="#ea9999" d="m116.29483 125.40638l0 0c0 -10.419479 8.446663 -18.866142 18.86615 -18.866142l0 0c5.003601 0 9.802277 1.9876785 13.340378 5.5257645c3.538086 3.5380936 5.525757 8.336769 5.525757 13.340378l0 0c0 10.419487 -8.446655 18.866142 -18.866135 18.866142l0 0c-10.419487 0 -18.86615 -8.446655 -18.86615 -18.866142z" fill-rule="evenodd"/><path fill="#ea9999" d="m164.29483 125.40638l0 0c0 -10.419479 8.446655 -18.866142 18.86615 -18.866142l0 0c5.003601 0 9.802277 1.9876785 13.340378 5.5257645c3.538086 3.5380936 5.525757 8.336769 5.525757 13.340378l0 0c0 10.419487 -8.446655 18.866142 -18.866135 18.866142l0 0c-10.419495 0 -18.86615 -8.446655 -18.86615 -18.866142z" fill-rule="evenodd"/><path fill="#ea9999" d="m212.29483 109.40638l0 0c0 -10.419479 8.446655 -18.866142 18.86615 -18.866142l0 0c5.003601 0 9.802277 1.9876785 13.340378 5.5257645c3.538086 3.5380936 5.525757 8.336769 5.525757 13.340378l0 0c0 10.419487 -8.446655 18.866142 -18.866135 18.866142l0 0c-10.419495 0 -18.86615 -8.446655 -18.86615 -18.866142z" fill-rule="evenodd"/><path fill="#ea9999" d="m243.6413 64.13604l0 0c0 -10.419483 8.446655 -18.866142 18.86615 -18.866142l0 0c5.003601 0 9.802277 1.9876785 13.340363 5.5257683c3.538086 3.538086 5.525757 8.336761 5.525757 13.340374l0 0c0 10.419487 -8.446655 18.866142 -18.86612 18.866142l0 0c-10.419495 0 -18.86615 -8.446655 -18.86615 -18.866142z" fill-rule="evenodd"/><path fill="#ea9999" d="m284.29483 37.406384l0 0c0 -10.419483 8.446655 -18.866144 18.86615 -18.866144l0 0c5.003601 0 9.802277 1.9876785 13.340363 5.5257664c3.538086 3.5380878 5.5257874 8.336765 5.5257874 13.340378l0 0c0 10.419479 -8.446686 18.866138 -18.86615 18.866138l0 0c-10.419495 0 -18.86615 -8.446659 -18.86615 -18.866138z" fill-rule="evenodd"/><path fill="#ea9999" d="m335.08224 31.674099l0 0c0 -10.419483 8.446655 -18.866142 18.86612 -18.866142l0 0c5.0036316 0 9.802307 1.9876766 13.340393 5.5257645c3.538086 3.5380878 5.525757 8.336765 5.525757 13.340378l0 0c0 10.419483 -8.446655 18.866142 -18.86615 18.866142l0 0c-10.419464 0 -18.86612 -8.446659 -18.86612 -18.866142z" fill-rule="evenodd"/><path fill="#ea9999" d="m383.08224 31.674099l0 0c0 -10.419483 8.446655 -18.866142 18.86612 -18.866142l0 0c5.0036316 0 9.802307 1.9876766 13.340393 5.5257645c3.538086 3.5380878 5.525757 8.336765 5.525757 13.340378l0 0c0 10.419483 -8.446655 18.866142 -18.86615 18.866142l0 0c-10.419464 0 -18.86612 -8.446659 -18.86612 -18.866142z" fill-rule="evenodd"/><path fill="#ea9999" d="m432.8985 29.796146l0 0c0 -10.419483 8.446655 -18.866142 18.86615 -18.866142l0 0c5.003601 0 9.802277 1.9876766 13.340393 5.5257645c3.538086 3.5380878 5.525757 8.336765 5.525757 13.340378l0 0c0 10.419483 -8.446655 18.866142 -18.86615 18.866142l0 0c-10.419495 0 -18.86615 -8.446659 -18.86615 -18.866142z" fill-rule="evenodd"/><path fill="#ea9999" d="m480.8985 29.796146l0 0c0 -10.419483 8.446655 -18.866142 18.86615 -18.866142l0 0c5.003601 0 9.802277 1.9876766 13.340393 5.5257645c3.538086 3.5380878 5.525757 8.336765 5.525757 13.340378l0 0c0 10.419483 -8.446655 18.866142 -18.86615 18.866142l0 0c-10.419495 0 -18.86615 -8.446659 -18.86615 -18.866142z" fill-rule="evenodd"/></g></svg>