<svg version="1.1" viewBox="0.0 0.0 565.7690288713911 242.48293963254594" fill="none" stroke="none" stroke-linecap="square" stroke-miterlimit="10" xmlns:xlink="http://www.w3.org/1999/xlink" xmlns="http://www.w3.org/2000/svg"><clipPath id="p.0"><path d="m0 0l565.76904 0l0 242.48294l-565.76904 0l0 -242.48294z" clip-rule="nonzero"/></clipPath><g clip-path="url(#p.0)"><path fill="#000000" fill-opacity="0.0" d="m0 0l565.76904 0l0 242.48294l-565.76904 0z" fill-rule="evenodd"/><path fill="#b6d7a8" d="m2.4908137 138.72572l560.7874 0l0 100.59842l-560.7874 0z" fill-rule="evenodd"/><path fill="#b6d7a8" d="m287.68646 113.22358c-10.8819275 36.04313 -44.087143 60.704918 -81.73715 60.70687l-0.0018157959 -34.782776l0 0c22.312912 -0.001159668 41.991653 -14.6167145 48.44072 -35.977318z" fill-rule="evenodd"/><path fill="#b6d7a8" d="m254.05368 105.30136c10.8819275 -36.04313 44.08716 -60.70492 81.73718 -60.70687l0.0018005371 34.78277l0 0c-22.312927 0.0011520386 -41.99167 14.616722 -48.440735 35.977318z" fill-rule="evenodd"/><path fill="#b6d7a8" d="m378.65735 113.22227c10.8819275 36.04313 44.08716 60.704918 81.73718 60.70687l0.0018005371 -34.782776l0 0c-22.312897 -0.001159668 -41.99164 -14.6167145 -48.440735 -35.977318z" fill-rule="evenodd"/><path fill="#b6d7a8" d="m412.29016 105.30005c-10.881958 -36.04313 -44.08716 -60.70492 -81.73718 -60.70687l-0.0018005371 34.78277l0 0c22.312897 0.0011520386 41.99164 14.616722 48.440704 35.977318z" fill-rule="evenodd"/><path fill="#b6d7a8" d="m294.23358 64.0538l83.14963 0l0 135.55905l-83.14963 0z" fill-rule="evenodd"/><path fill="#b6d7a8" d="m310.23358 80.0538l83.14963 0l0 135.55905l-83.14963 0z" fill-rule="evenodd"/><path fill="#b6d7a8" d="m276.35696 90.938324l83.1496 0l0 135.55905l-83.1496 0z" fill-rule="evenodd"/><path fill="#ea9999" d="m69.815834 126.68854l0 0c0 -10.419487 8.446655 -18.866142 18.866135 -18.866142l0 0c5.0036163 0 9.802292 1.9876709 13.340378 5.5257645c3.5380936 3.538086 5.5257645 8.336761 5.5257645 13.340378l0 0c0 10.419479 -8.446655 18.866135 -18.866142 18.866135l0 0c-10.419479 0 -18.866135 -8.446655 -18.866135 -18.866135z" fill-rule="evenodd"/><path fill="#ea9999" d="m245.1623 65.41819l0 0c0 -10.419479 8.446655 -18.866138 18.86615 -18.866138l0 0c5.003601 0 9.802277 1.9876785 13.340363 5.5257645c3.538086 3.5380898 5.525757 8.336765 5.525757 13.340374l0 0c0 10.419487 -8.446655 18.866142 -18.86612 18.866142l0 0c-10.419495 0 -18.86615 -8.446655 -18.86615 -18.866142z" fill-rule="evenodd"/><path fill="#000000" fill-opacity="0.0" d="m107.54811 126.68854l43.46457 0" fill-rule="evenodd"/><path stroke="#000000" stroke-width="2.0" stroke-linejoin="round" stroke-linecap="butt" d="m107.54812 126.68854l31.464561 0" fill-rule="evenodd"/><path fill="#000000" stroke="#000000" stroke-width="2.0" stroke-linecap="butt" d="m139.01268 129.992l9.076202 -3.3034668l-9.076202 -3.3034668z" fill-rule="evenodd"/><path fill="#000000" fill-opacity="0.0" d="m250.68805 78.75857l-21.669281 31.338585" fill-rule="evenodd"/><path stroke="#000000" stroke-width="2.0" stroke-linejoin="round" stroke-linecap="butt" d="m250.68805 78.75857l-14.844437 21.468353" fill-rule="evenodd"/><path fill="#000000" stroke="#000000" stroke-width="2.0" stroke-linecap="butt" d="m233.12645 98.34812l-2.444809 9.344147l7.879135 -5.586548z" fill-rule="evenodd"/></g></svg>