<svg version="1.1" viewBox="0.0 0.0 656.0367454068241 316.43832020997377" fill="none" stroke="none" stroke-linecap="square" stroke-miterlimit="10" xmlns:xlink="http://www.w3.org/1999/xlink" xmlns="http://www.w3.org/2000/svg"><clipPath id="p.0"><path d="m0 0l656.03674 0l0 316.43832l-656.03674 0l0 -316.43832z" clip-rule="nonzero"/></clipPath><g clip-path="url(#p.0)"><path fill="#000000" fill-opacity="0.0" d="m0 0l656.03674 0l0 316.43832l-656.03674 0z" fill-rule="evenodd"/><path fill="#b6d7a8" d="m308.71942 194.31534c-9.341553 26.88301 -36.172333 45.11635 -66.48813 45.183167l0 0l0 0c30.315796 -0.06681824 57.146576 -18.300156 66.48813 -45.183167z" fill-rule="evenodd"/><path stroke="#000000" stroke-width="2.0" stroke-linejoin="round" stroke-linecap="butt" d="m308.71942 194.31534c-9.341553 26.88301 -36.172333 45.11635 -66.48813 45.183167l0 0l0 0c30.315796 -0.06681824 57.146576 -18.300156 66.48813 -45.183167z" fill-rule="evenodd"/><path fill="#b6d7a8" d="m306.72693 199.8816l0 0c12.180542 -34.47287 44.957336 -57.365143 81.5163 -56.933395l0 0l0 0c-36.55896 -0.43174744 -69.335754 22.460526 -81.5163 56.933395z" fill-rule="evenodd"/><path stroke="#000000" stroke-width="2.0" stroke-linejoin="round" stroke-linecap="butt" d="m306.72693 199.8816l0 0c12.180542 -34.47287 44.957336 -57.365143 81.5163 -56.933395l0 0l0 0c-36.55896 -0.43174744 -69.335754 22.460526 -81.5163 56.933395z" fill-rule="evenodd"/><path fill="#000000" fill-opacity="0.0" d="m242.2313 239.4985l-189.70079 0" fill-rule="evenodd"/><path stroke="#000000" stroke-width="2.0" stroke-linejoin="round" stroke-linecap="butt" d="m242.2313 239.4985l-189.70079 0" fill-rule="evenodd"/><path fill="#000000" fill-opacity="0.0" d="m388.24323 142.94821l216.8504 0" fill-rule="evenodd"/><path stroke="#000000" stroke-width="2.0" stroke-linejoin="round" stroke-linecap="butt" d="m388.24323 142.94821l216.8504 0" fill-rule="evenodd"/><path fill="#000000" fill-opacity="0.0" d="m47.272964 267.65878l0 -261.41733" fill-rule="evenodd"/><path stroke="#000000" stroke-width="2.0" stroke-linejoin="round" stroke-linecap="butt" d="m47.272964 267.65878l0 -249.41731" fill-rule="evenodd"/><path fill="#000000" stroke="#000000" stroke-width="2.0" stroke-linecap="butt" d="m50.57643 18.241468l-3.3034668 -9.076194l-3.303463 9.076194z" fill-rule="evenodd"/><path fill="#000000" fill-opacity="0.0" d="m0 195.45407l0 -117.00787l42.015747 0l0 117.00787z" fill-rule="evenodd"/><path fill="#000000" d="m14.560623 141.31334l0.34375 0q0.125 0.65625 0.421875 1.0q0.4375 0.484375 1.359375 0.859375l10.515625 4.296875l0 0.34375l-10.640625 4.625q-0.828125 0.359375 -1.015625 0.5q-0.28125 0.234375 -0.4375 0.5625q-0.15625 0.328125 -0.203125 0.90625l-0.34375 0l0 -5.046875l0.34375 0q0.078125 0.84375 0.296875 1.109375q0.203125 0.25 0.53125 0.25q0.453125 0 1.421875 -0.421875l7.25 -3.140625l-7.15625 -2.921875q-1.0625 -0.421875 -1.46875 -0.421875q-0.265625 0 -0.5 0.265625q-0.25 0.265625 -0.34375 0.890625q-0.015625 0.046875 -0.03125 0.15625l-0.34375 0l0 -3.8125zm16.015625 -6.019821l0.328125 0q-0.6875 1.375 -1.609375 2.296875q-1.328125 1.3125 -3.125 2.03125q-1.796875 0.703125 -3.71875 0.703125q-2.828125 0 -5.15625 -1.390625q-2.328125 -1.390625 -3.328125 -3.640625l0.375 0q0.625 1.125 1.703125 1.84375q1.078125 0.71875 2.734375 1.078125q1.640625 0.359375 3.4375 0.359375q1.9375 0 3.53125 -0.3125q1.265625 -0.234375 2.015625 -0.5625q0.765625 -0.34375 1.46875 -0.90625q0.703125 -0.578125 1.34375 -1.5zm-12.0 -0.665802l0 -3.921875l0.34375 0q0 0.375 0.125 0.53125q0.125 0.140625 0.328125 0.140625q0.21875 0 0.671875 -0.3125q0.15625 -0.109375 0.46875 -0.3125l0.9375 -0.578125l-0.9375 -0.6875q-0.90625 -0.65625 -1.140625 -0.65625q-0.203125 0 -0.328125 0.15625q-0.125 0.15625 -0.125 0.5l-0.34375 0l0 -2.8281174l0.34375 0q0.015625 0.453125 0.234375 0.78125q0.3125 0.4375 1.359375 1.2187424l1.515625 1.140625l2.984375 -2.0781174q1.109375 -0.765625 1.328125 -1.09375q0.21875 -0.328125 0.25 -0.84375l0.328125 0l0 3.9218674l-0.328125 0q0 -0.40625 -0.1875 -0.625q-0.125 -0.171875 -0.328125 -0.171875q-0.21875 0 -1.0625 0.578125l-1.78125 1.21875l1.78125 1.34375q0.828125 0.609375 0.984375 0.609375q0.21875 0 0.40625 -0.203125q0.171875 -0.203125 0.1875 -0.609375l0.328125 0l0 2.71875l-0.328125 0q-0.046875 -0.328125 -0.234375 -0.578125q-0.25 -0.34375 -1.34375 -1.15625l-2.328125 -1.75l-2.28125 1.578125q-0.984375 0.671875 -1.234375 1.046875q-0.25 0.375 -0.25 0.921875l-0.34375 0zm-4.234375 -9.499992l-0.375 0q0.6875 -1.375 1.609375 -2.296875q1.328125 -1.3125 3.125 -2.015625q1.78125 -0.71875 3.734375 -0.71875q2.8125 0 5.140625 1.390625q2.328125 1.390625 3.328125 3.640625l-0.328125 0q-0.625 -1.125 -1.703125 -1.84375q-1.0625 -0.71875 -2.71875 -1.0625q-1.65625 -0.359375 -3.453125 -0.359375q-1.9375 0 -3.546875 0.296875q-1.25 0.234375 -2.0 0.578125q-0.765625 0.328125 -1.46875 0.90625q-0.703125 0.5625 -1.34375 1.484375z" fill-rule="nonzero"/><path fill="#000000" fill-opacity="0.0" d="m47.272964 267.65878l598.77167 0" fill-rule="evenodd"/><path stroke="#000000" stroke-width="2.0" stroke-linejoin="round" stroke-linecap="butt" d="m47.272964 267.65878l586.77167 0" fill-rule="evenodd"/><path fill="#000000" stroke="#000000" stroke-width="2.0" stroke-linecap="butt" d="m634.0446 270.96225l9.076172 -3.3034668l-9.076172 -3.3034668z" fill-rule="evenodd"/><path fill="#000000" fill-opacity="0.0" d="m273.53543 277.1496l117.00787 0l0 42.015747l-117.00787 0z" fill-rule="evenodd"/><path fill="#000000" d="m327.6253 295.72586l3.921875 0l0 0.34375q-0.375 0 -0.53125 0.125q-0.140625 0.125 -0.140625 0.328125q0 0.21875 0.3125 0.671875q0.109375 0.15625 0.3125 0.46875l0.578125 0.9375l0.6875 -0.9375q0.65625 -0.90625 0.65625 -1.140625q0 -0.203125 -0.15625 -0.328125q-0.15625 -0.125 -0.5 -0.125l0 -0.34375l2.828125 0l0 0.34375q-0.453125 0.015625 -0.78125 0.234375q-0.4375 0.3125 -1.21875 1.359375l-1.140625 1.515625l2.078125 2.984375q0.765625 1.109375 1.09375 1.328125q0.328125 0.21875 0.84375 0.25l0 0.328125l-3.921875 0l0 -0.328125q0.40625 0 0.625 -0.1875q0.171875 -0.125 0.171875 -0.328125q0 -0.21875 -0.578125 -1.0625l-1.21875 -1.78125l-1.34375 1.78125q-0.609375 0.828125 -0.609375 0.984375q0 0.21875 0.203125 0.40625q0.203125 0.171875 0.609375 0.1875l0 0.328125l-2.71875 0l0 -0.328125q0.328125 -0.046875 0.578125 -0.234375q0.34375 -0.25 1.15625 -1.34375l1.75 -2.328125l-1.578125 -2.28125q-0.671875 -0.984375 -1.046875 -1.234375q-0.375 -0.25 -0.921875 -0.25l0 -0.34375z" fill-rule="nonzero"/></g></svg>